<?xml version="1.0" standalone="no"?>
<!DOCTYPE svg PUBLIC "-//W3C//DTD SVG 20010904//EN"
 "http://www.w3.org/TR/2001/REC-SVG-20010904/DTD/svg10.dtd">
<svg version="1.0" xmlns="http://www.w3.org/2000/svg"
 width="16.000000pt" height="16.000000pt" viewBox="0 0 16.000000 16.000000"
 preserveAspectRatio="xMidYMid meet">
<metadata>
Created by potrace 1.11, written by Peter Selinger 2001-2013
</metadata>
<g transform="translate(0.000000,16.000000) scale(0.002963,-0.002963)"
fill="#000000" stroke="none">
<path d="M2618 5396 c-1 -2 -37 -6 -78 -10 -41 -3 -84 -8 -95 -10 -11 -2 -42
-7 -70 -10 -41 -6 -152 -29 -247 -52 -10 -2 -26 -6 -35 -8 -10 -2 -63 -19
-118 -37 -55 -18 -102 -33 -105 -34 -6 -2 -21 -8 -102 -41 -225 -93 -446 -223
-648 -382 -94 -75 -343 -316 -390 -380 -14 -18 -35 -45 -48 -60 -35 -41 -146
-200 -192 -275 -75 -124 -142 -261 -221 -452 -33 -82 -110 -364 -124 -459 -3
-21 -8 -48 -10 -60 -19 -83 -30 -240 -29 -431 0 -234 5 -282 48 -540 14 -77
78 -302 106 -370 4 -11 20 -51 34 -88 127 -332 371 -693 635 -941 30 -28 62
-58 71 -67 83 -79 383 -299 409 -299 6 0 11 -4 11 -10 0 -5 5 -10 11 -10 6 0
24 -9 40 -21 16 -11 29 -17 29 -13 0 4 8 0 18 -8 17 -14 107 -59 227 -113 76
-34 348 -125 374 -125 11 0 22 -4 26 -9 3 -6 13 -9 23 -9 9 1 40 -4 67 -10 64
-15 101 -22 145 -28 19 -2 49 -7 65 -10 176 -31 521 -25 720 12 17 3 44 7 60
10 17 3 50 11 75 18 25 8 48 14 53 15 44 6 166 44 282 88 307 115 626 305 895
531 115 97 387 380 439 456 8 11 17 23 20 26 50 44 315 463 300 474 -2 1 -92
60 -199 131 -107 72 -197 132 -200 135 -3 3 -138 94 -300 202 -162 108 -409
274 -549 367 -139 94 -255 171 -258 171 -2 0 -16 11 -31 25 -20 19 -23 25 -10
25 9 0 18 3 20 8 2 4 57 43 123 87 66 44 122 83 123 88 2 4 7 7 11 7 7 0 381
247 406 267 28 24 196 133 204 133 5 0 11 4 13 8 2 5 41 34 88 65 47 31 95 64
108 72 12 9 120 82 240 162 119 80 219 147 221 149 7 7 -68 148 -129 242 -33
51 -60 97 -60 103 0 5 -4 9 -10 9 -5 0 -10 4 -10 10 0 5 -7 18 -15 27 -8 10
-49 68 -92 128 -42 61 -80 112 -83 115 -3 3 -21 25 -40 50 -116 149 -367 384
-498 465 -15 9 -150 95 -207 133 -114 73 -494 234 -605 257 -8 2 -35 9 -60 16
-25 7 -54 14 -65 16 -11 2 -36 8 -55 13 -35 9 -124 24 -210 35 -25 3 -61 8
-80 11 -38 6 -456 15 -462 10z"/>
</g>
</svg>
